<svg xmlns="http://www.w3.org/2000/svg" style="display: none;"><symbol id="ct-icon-svg" viewBox="0 0 720 720"><title>ct-icon-svg</title><style type="text/css"> .st0{fill:#5273B1;} .st1{fill:#455D94;} .st2{fill:#1A1A10;} .st3{fill:#2A437D;} .st4{fill:#98A6D1;} .st5{fill:#001638;} .st6{fill:#A78642;} .st7{fill:#60440C;} .st8{fill:#312B19;} .st9{fill:#102962;} .st10{fill:#EDE4BA;} .st11{fill:#C9B281;} .st12{fill:#708BC2;} </style><rect x="326.25" y="292.48" class="st0" width="33.72" height="33.72"/><rect x="326.25" y="258.75" class="st1" width="33.72" height="33.72"/><rect x="326.25" y="225.03" class="st0" width="33.72" height="33.72"/><rect x="326.25" y="191.31" class="st2" width="33.72" height="33.72"/><rect x="326.25" y="326.2" class="st3" width="33.72" height="33.72"/><rect x="326.25" y="359.92" class="st4" width="33.72" height="33.72"/><rect x="326.25" y="393.65" class="st3" width="33.72" height="33.72"/><rect x="326.25" y="427.37" class="st5" width="33.72" height="33.72"/><rect x="326.25" y="461.09" class="st6" width="33.72" height="33.72"/><rect x="326.25" y="494.82" class="st7" width="33.72" height="33.72"/><rect x="326.25" y="528.54" class="st8" width="33.72" height="33.72"/><rect x="359.97" y="292.48" class="st1" width="33.72" height="33.72"/><rect x="359.97" y="258.75" class="st0" width="33.72" height="33.72"/><rect x="359.97" y="225.03" class="st3" width="33.72" height="33.72"/><rect x="359.97" y="191.31" class="st1" width="33.72" height="33.72"/><rect x="359.97" y="157.58" class="st2" width="33.72" height="33.72"/><rect x="359.97" y="326.2" class="st0" width="33.72" height="33.72"/><rect x="359.97" y="359.92" class="st4" width="33.72" height="33.72"/><rect x="359.97" y="393.65" class="st9" width="33.72" height="33.72"/><rect x="359.97" y="427.37" class="st10" width="33.72" height="33.72"/><rect x="359.97" y="461.09" class="st11" width="33.72" height="33.72"/><rect x="359.97" y="494.82" class="st8" width="33.72" height="33.72"/><rect x="393.69" y="292.48" class="st0" width="33.72" height="33.72"/><rect x="393.69" y="258.75" class="st3" width="33.72" height="33.72"/><rect x="393.69" y="225.03" class="st0" width="33.72" height="33.72"/><rect x="393.69" y="191.31" class="st9" width="33.72" height="33.72"/><rect x="393.69" y="157.58" class="st2" width="33.72" height="33.72"/><rect x="393.69" y="326.2" class="st4" width="33.72" height="33.72"/><rect x="393.69" y="359.92" class="st3" width="33.72" height="33.72"/><rect x="393.69" y="393.65" class="st9" width="33.72" height="33.72"/><rect x="393.69" y="427.37" class="st6" width="33.72" height="33.72"/><rect x="393.69" y="461.09" class="st7" width="33.72" height="33.72"/><rect x="393.69" y="494.82" class="st8" width="33.72" height="33.72"/><rect x="427.42" y="292.48" class="st3" width="33.72" height="33.72"/><rect x="427.42" y="258.75" class="st0" width="33.72" height="33.72"/><rect x="427.42" y="225.03" class="st9" width="33.72" height="33.72"/><rect x="427.42" y="191.31" class="st2" width="33.72" height="33.72"/><rect x="427.42" y="326.2" class="st4" width="33.72" height="33.72"/><rect x="427.42" y="359.92" class="st9" width="33.72" height="33.72"/><rect x="427.42" y="393.65" class="st10" width="33.72" height="33.72"/><rect x="427.42" y="427.37" class="st11" width="33.72" height="33.72"/><rect x="427.42" y="461.09" class="st8" width="33.72" height="33.72"/><rect x="461.14" y="292.48" class="st4" width="33.72" height="33.72"/><rect x="461.14" y="258.75" class="st9" width="33.72" height="33.72"/><rect x="461.14" y="225.03" class="st2" width="33.72" height="33.72"/><rect x="461.14" y="326.2" class="st3" width="33.72" height="33.72"/><rect x="461.14" y="359.92" class="st9" width="33.72" height="33.72"/><rect x="461.14" y="393.65" class="st6" width="33.72" height="33.72"/><rect x="461.14" y="427.37" class="st7" width="33.72" height="33.72"/><rect x="461.14" y="461.09" class="st8" width="33.72" height="33.72"/><rect x="494.86" y="292.48" class="st4" width="33.72" height="33.72"/><rect x="494.86" y="258.75" class="st2" width="33.72" height="33.72"/><rect x="494.86" y="326.2" class="st9" width="33.72" height="33.72"/><rect x="494.86" y="359.92" class="st10" width="33.72" height="33.72"/><rect x="494.86" y="393.65" class="st11" width="33.72" height="33.72"/><rect x="494.86" y="427.37" class="st8" width="33.72" height="33.72"/><rect x="528.59" y="292.48" class="st2" width="33.72" height="33.72"/><rect x="528.59" y="326.2" class="st2" width="33.72" height="33.72"/><rect x="528.59" y="359.92" class="st6" width="33.72" height="33.72"/><rect x="528.59" y="393.65" class="st7" width="33.72" height="33.72"/><rect x="528.59" y="427.37" class="st8" width="33.72" height="33.72"/><rect x="562.31" y="359.92" class="st8" width="33.72" height="33.72"/><rect x="562.31" y="393.65" class="st8" width="33.72" height="33.72"/><rect x="292.52" y="292.48" class="st1" width="33.72" height="33.72"/><rect x="292.52" y="258.75" class="st0" width="33.72" height="33.72"/><rect x="292.52" y="225.03" class="st3" width="33.72" height="33.72"/><rect x="292.52" y="191.31" class="st2" width="33.72" height="33.72"/><rect x="292.52" y="326.2" class="st0" width="33.72" height="33.72"/><rect x="292.52" y="359.92" class="st4" width="33.72" height="33.72"/><rect x="292.52" y="393.65" class="st12" width="33.72" height="33.72"/><rect x="292.52" y="427.37" class="st9" width="33.72" height="33.72"/><rect x="292.52" y="461.09" class="st10" width="33.72" height="33.72"/><rect x="292.52" y="494.82" class="st11" width="33.72" height="33.72"/><rect x="292.52" y="528.54" class="st8" width="33.72" height="33.72"/><rect x="258.8" y="292.48" class="st0" width="33.72" height="33.72"/><rect x="258.8" y="258.75" class="st3" width="33.72" height="33.72"/><rect x="258.8" y="225.03" class="st0" width="33.72" height="33.72"/><rect x="258.8" y="191.31" class="st2" width="33.72" height="33.72"/><rect x="258.8" y="326.2" class="st4" width="33.72" height="33.72"/><rect x="258.8" y="359.92" class="st3" width="33.72" height="33.72"/><rect x="258.8" y="393.65" class="st9" width="33.72" height="33.72"/><rect x="258.8" y="427.37" class="st6" width="33.72" height="33.72"/><rect x="258.8" y="461.09" class="st7" width="33.72" height="33.72"/><rect x="258.8" y="494.82" class="st8" width="33.72" height="33.72"/><rect x="225.08" y="292.48" class="st4" width="33.72" height="33.72"/><rect x="225.08" y="258.75" class="st0" width="33.72" height="33.72"/><rect x="225.08" y="225.03" class="st2" width="33.72" height="33.72"/><rect x="225.08" y="326.2" class="st3" width="33.72" height="33.72"/><rect x="225.08" y="359.92" class="st9" width="33.72" height="33.72"/><rect x="225.08" y="393.65" class="st10" width="33.72" height="33.72"/><rect x="225.08" y="427.37" class="st11" width="33.72" height="33.72"/><rect x="225.08" y="461.09" class="st2" width="33.72" height="33.72"/><rect x="191.35" y="292.48" class="st3" width="33.72" height="33.72"/><rect x="191.35" y="258.75" class="st4" width="33.72" height="33.72"/><rect x="191.35" y="225.03" class="st2" width="33.72" height="33.72"/><rect x="191.35" y="326.2" class="st9" width="33.72" height="33.72"/><rect x="191.35" y="359.92" class="st6" width="33.72" height="33.72"/><rect x="191.35" y="393.65" class="st7" width="33.72" height="33.72"/><rect x="191.35" y="427.37" class="st8" width="33.72" height="33.72"/><rect x="157.63" y="292.48" class="st2" width="33.72" height="33.72"/><rect x="157.63" y="258.75" class="st2" width="33.72" height="33.72"/><rect x="157.63" y="326.2" class="st10" width="33.72" height="33.72"/><rect x="157.63" y="359.92" class="st11" width="33.72" height="33.72"/><rect x="157.63" y="393.65" class="st8" width="33.72" height="33.72"/><rect x="123.91" y="326.2" class="st8" width="33.72" height="33.72"/><rect x="123.91" y="359.92" class="st8" width="33.72" height="33.72"/></symbol></svg>